<svg width="25" height="30" viewBox="0 0 25 30" fill="none" xmlns="http://www.w3.org/2000/svg">
<path d="M12.0252 0C5.39622 0 0 5.39623 0 12.0252C0 12.7799 0.0691822 13.5409 0.213836 14.283C0.220126 14.327 0.245283 14.4591 0.295597 14.6855C0.477987 15.4969 0.748427 16.2956 1.10063 17.0566C2.39623 20.1069 5.24528 24.7925 11.4969 29.8113C11.6541 29.9371 11.8428 30 12.0314 30C12.2201 30 12.4088 29.9371 12.566 29.8113C18.8113 24.7925 21.6667 20.1069 22.9623 17.0566C23.3145 16.2956 23.5849 15.5031 23.7673 14.6855C23.8176 14.4591 23.8428 14.327 23.8491 14.283C23.9874 13.5409 24.0629 12.7799 24.0629 12.0252C24.0503 5.39623 18.6541 0 12.0252 0ZM22.1635 13.9874C22.1635 14 22.1572 14.0126 22.1572 14.0252C22.1509 14.0566 22.1321 14.1509 22.1006 14.2956C22.1006 14.3019 22.1006 14.3019 22.1006 14.3082C21.9434 15.0126 21.7107 15.6981 21.4025 16.3585C21.3962 16.3648 21.3962 16.3774 21.3899 16.3836C20.2138 19.1698 17.6352 23.4214 12.0252 28.0566C6.41509 23.4214 3.83648 19.1698 2.66038 16.3836C2.65409 16.3774 2.65409 16.3648 2.6478 16.3585C2.34591 15.7044 2.11321 15.0126 1.94968 14.3082C1.94968 14.3019 1.94968 14.3019 1.94968 14.2956C1.91195 14.1509 1.89937 14.0566 1.89308 14.0252C1.89308 14.0126 1.88679 14 1.88679 13.9811C1.76101 13.3333 1.69811 12.6792 1.69811 12.0189C1.69811 6.32704 6.33333 1.69182 12.0252 1.69182C17.717 1.69182 22.3522 6.32704 22.3522 12.0189C22.3522 12.6855 22.2893 13.3459 22.1635 13.9874Z" fill="black"/>
<path d="M12.0254 4.52197C7.81781 4.52197 4.39014 7.94965 4.39014 12.1572C4.39014 16.3647 7.81781 19.7924 12.0254 19.7924C16.2329 19.7924 19.6606 16.3647 19.6606 12.1572C19.6606 7.94965 16.2329 4.52197 12.0254 4.52197ZM12.0254 18.0943C8.74862 18.0943 6.08825 15.4276 6.08825 12.1572C6.08825 8.88675 8.75491 6.22009 12.0254 6.22009C15.2958 6.22009 17.9625 8.88675 17.9625 12.1572C17.9625 15.4276 15.3021 18.0943 12.0254 18.0943Z" fill="black"/>
</svg>
